<mxfile host="app.diagrams.net" modified="2021-03-16T13:10:09.250Z" agent="5.0 (Windows)" etag="8SSZWP2I4BN1EGIbxfOG" version="14.4.8" type="github">
  <diagram id="M0rw3ylusPxFB5cYBOet" name="Page-1">
    <mxGraphModel dx="1422" dy="803" grid="1" gridSize="11" guides="1" tooltips="1" connect="1" arrows="1" fold="1" page="1" pageScale="1" pageWidth="690" pageHeight="980" math="0" shadow="0">
      <root>
        <mxCell id="0" />
        <mxCell id="1" parent="0" />
        <mxCell id="yZL6VIuJl-Uy-41-2PRD-1" value="" style="rounded=0;whiteSpace=wrap;html=1;" vertex="1" parent="1">
          <mxGeometry x="630" y="370" width="120" height="60" as="geometry" />
        </mxCell>
        <mxCell id="yZL6VIuJl-Uy-41-2PRD-2" value="" style="shape=image;verticalLabelPosition=bottom;labelBackgroundColor=#ffffff;verticalAlign=top;aspect=fixed;imageAspect=0;image=data:image/png,iVBORw0KGgoAAAANSUhEUgAAAaUAAAFbCAYAAAB1SpHHAAAgAElEQVR4nO2d32skx7n3z5+ji74RDDbE2c2Ls4edNYh9oyV7EhLMRLsiydjHJIGxsY6V9UYOWHGOBMcyRBxZGXOYzMVe5JUE2Xhv9kK6MMvCIaDkImuQIBd7GdA/8LwX3dVdv57qqpnu6eqZ78UHpO6a6urq6vr2U1X97X9ZSjq06Py/z5s79mv/p9v4+QMAQCz8S9MFiAGIEgAAxAFEKYEoAQBALECUEogSAADEAkQpgSjFyx/o9h//ST/6n6e0PHEe/05/WP8b/fl1edsb9B+n79P2Z9+ipXvfpe3T9+k/Pmz6XOvn+mfv0O9O79GdpEN3xu/T7x5/l65L+3+88pz+d+XfGy8nWGxmKkrLr6/Rre+s0WuvyNtfo1dupdtvfWeNbr3+7ZlXAkSpDj6mb//PP+lHf1S53Q/JwyVKaf5l+f3m+3+jv3//P7Xt8ytKd8bZeVn2lYnSUvKf9Oef6QIOwGyZnSi9codu3bpDr91SRSn55g/o9W++lv3/bXrtO2vS/7MBolQHfqJRa/6vP6a//+wx/cbY9y366WMhRG/Qf5y+Qz+913R9VYNLlJY+vJcL0fXP3qHfjd8w07w6pv+11hkAs2FGopSKzWuvpFGRGimpLL8++2hpoUWp/xcpkvkHffu2tu9/ntLy7af0PZHmv/6Q7//Gf/2TvvfgY1p+8A9LJOQSjSyKkiOgrBwivZynfExxXD0C+9Ef07IU6WzDdv6kUcX7OXIkVbZv+7NvpZGIsf9b9NPH79BP76WRWro/jVyKY8v7bAKj7ldERt4usAlPCb/5/t/YYbwff/aUHh0P6cdNtlkw18xElAqhgSjpNCpKt5/S92Qh6v+FfvTHv9A3Evn/fxbbtPS5OGSisfzgH5LQlEUy6dBcKiTp37a0yw/+YYjSkk/+Uzzxy8Ncxv4P76n7PrxHv5MiLSEOQkyuf/aONEyWRmhF+vT/Qnj0/1MBKkRNGnZkyu6MlHx5/TH9fX1sFR6IEqib+kVp+Q16/Tt3so6qRJReuUO3vvMDemV5tpWwqKK0/OAfWnShdfT9v2jRk7r/G/+lRTu3n9L3clGzzSlpkViW/tus8EwhSo6O1Y0uBDK6aKTIQmAMi937Lm3nIiYPG3bM9Pe+S9vaPI+8XxU4O5WIEobwQIPULEq6CDlEafkNet1YBDEbFlWUuGEwRZQcK9/E8J09f785pXSYTorObPsnEKUfrzyfTJTufZe22TkmU1SWkgpF6cN7ziG4O+Py4bhKRCn5T/rzz57TH15tpl2CxaZeUcqE5paNW29QoqWb9QIHwSKLEi8qnfpFKcv/G8qwn0ozkZJblNROX902tSg5IiF2cYIEIiXQdmb8npIlUmpYkJaSxRUlc3jOsr82UZLnkdK0trx4UcoiPWbfNB2rfbl0ijHfpM0xTSVKZXNGHsvXfYb4SimdUzqmzf/bUJsFc0/joiTeXVKZ7bzSwopS0tFW3/3TXOgwpSjZhwaz949kQcnKkeZn/60pQFk+jtV3k74MKq+ec6++U6Oq6USpQ8bqOl2EMmHSV98VvxeLKepZfffGw2N6dPyUfv/we822WzC3wNEhWXBRmmfY95QAS1mE+fYQkRKoFYhSAlGaZ+yODsCOy9HhPdo5xtAdqB+IUgJRmm+me4l2kYD3HYgBiFICUQIAgFiAKCUQJQAAiAWIUgJRAgCAWIAoJRAlAACIBYhSAlECAIBYgCglECUAAIgFiFICUQIAgFho/nPor9xRLYbwOXQAAFhYGv8cukrqjYfPoQMAwGIS5efQIUoAALCYRPY59G/Ta/jyLAAALCxRfA49+eYPMKcEAAAgos+hZyTf/IH6VdoZAFECAIA4iONz6MZv7rAflqsDiBIAAMRB41+e1Snmn2ZXLogSAADEQeOipMwnYU4JAAAWGjg6JBAlAACIBYhSAlECAIBYgCglECUAAIgFiFICUQIAgFiAKCUQJQAAiAWIUtKsKAEAACiAKCUQJQAAiAWIUgJRAgCAWIAoJRAlAACIBYhSEqMo/Sutvr9DP3/zX5Xtr7z5K7p3u+myxcuNt806u/H2Dj346D26EUH5midtV022Ie82fPs9XLcFpfnPoeekFkS3Fux7SjZeefNX9OD9n9Ar2f95x3r7Pbp32y5YXnl+tJPTFnGzCY0de4dbmyhd/wn9vHWd5r/RvY9+RavXp8jj9ntK2wy5jv5t+N/oXovaKKiWaD6HnnzzB3Tr9TsL95E/E67jSG/UBx+FC5LZMf8rrb4d3rHMnpAn+wo63BAm7JwbpQIhfeXNX9GDt/9twt/7teHpjgHaThyfQ19+g17/zg/oleXF+/KsjnMI6vZ7dO92SPQgIiRXR5R2/HkUJXe0ohO7/hP6ubHf8rR7/Sf08yBhKDqpFPFbfbu+Xz43eb84T/mcLOfuPC+f+rSUTelEtfIHdrDp9S5Qr3VZ3tr1lM8/E9LVt7m8tWMb0bqJbzv0bsOtjEBBlUTwOfR02+vffI0W8XPoCiVP3+FzSn7DJMV+Lf3t9+jB+7+SOgl1WOXG21qnGBQ9eAxDOjqoG29rQiIf+/ZPFHEz6uz2e1qHHR5luTtV+ZhhQ1H60G1Y3vr1tNSZLGTK9crELL+etusz/ZyUuw03P+cFmudfbr5xmwAAAIAYwOo7AAAA0QBRAgAAEA0QJQAAANEAUQIAABANECUAAADRAFECAAAQDRAlAAAA0QBRAgAAEA0QJQAAANEAUQIAABANECUAAADRAFECAAAQDRAlAAAA0QBRAgAAEA0VidK79PHB7+m/BZ99RD/M9r3zibT9YJ8233T87mCH3vHKU8+nQz/8cF/K5/f06Yf38zw+/oVZ5h9+uK/kqf5eLkfVfEFfvXxJL3Oe0efyvhdf0i/l9MNn9PLZF5bfpXw17NAvH39tbFtK0u3i75Rf059efE1/emD+5uXLl/RSP3YdbSO/Ntn+Nz+iTy3XmWs3P/xwX7ue92nzM7U96G3hvz95N7jdLv1ih8/jzY/oU6Mt36fNz4p2w7enkjYvl8F6D9nbc7Vtkm9bLx7/mpaSDn3+TE6btqmlpENLD76kF/L/Ep8/e2m05fwYett78CW9ePaFmsfwmXa/MPcMaDXViZLewWc3sSIgv9iRbnyLYPxiR7pJ1Tzf+aRIy4mSebO+Sx9/tk+fGp3Sfdr8TOqE3vyIPrV0BtWT3oyKUCg3mkuUim2fP1NvelV8vqCvXhbCw4lSvs1281eK3tFmdS+uyZsfWa6Ppd1kacpE6Z1PXCIkYRUWWzu05PvmR/TxJztam5FEiW1PYW3eWhc1425bTLrhs0JUHnxJX734Ohcvve3nbfnBl/RVluaXj5/RV8+031ja5efPXtILI2+I0rxRiyjJHY16Q71LH2c3oCxcMj/8cL+IcvI89Y4nQJQ+eddM/4sd+vTDj4r8FbGsj18+/toQGLE9vdGqEKVif5yiJNpBdk08RKloEyWiFPBwIT/kqKSiae7TjvPJu/TOJ3LUJ4kS057C2ry9LupmIlFKvqCvxIPVgy/pq8df0J9eqBHNLx9/TV89ltqaIkpf01fD4mHK3i6ze+PBl/RCuUcgSvNGLaIk36zcEy/bKeRp1GEOecjHZ/guzTsrl3TcovMwy2wOL1bL589eWm9wZYhuWlF68CW9yDqIeEVJuob68J3UPmzDai5RksWrtEzsEC2/L2+zuZBK4qoN39nak1ebLx2+q7uNmm3LNjRsREqS2Lx49oX0oNUhRVBYUeoYEZfSLofPsvz0NgxRmjfqmVOSngaVG0rbHnKDyh1O2PDdR/RDfWiF7QCy8/AZ/pmAOkXJNr7fGlEqG76TIiB/UcqGCfW5ovw6VyFKcntVRcnWniYXpRgjJWlOSW4/eXuS2rIQlDJRku8RrV3K5bIK3gzqBsyGeobvJIobSn6q5J9q2aEMqWMKF6UiX6U8bJnrmEzWbybbdmkYRDDB8B1/vFhESer4fUTJGQ1Jw2pKRGy2G+tvjPJy+8zhO7W92ERJbU/Bbd5aF/USPnzHD7ulAvPrYijPQ5Tye0BL+4JdlANRmjdmKEodrYMIm/SdLlISf++rx5+xKJUvdPg1/enFS0lI0v/1TsG34zBWK8nDI4KZi1J63fPOOTBSMhYhKPM3aXRkrO6zXWfLYgbXPn2hg1rm9IHr0xJRmtuFDvI8jy4mL75W/y8VJdFOi9/ZHuaKUQeI0rwxW1FK9Mlex5Jc72XmxVOouYTXFLaiQ3hXXejgtYS4CrTlt8YNpe63RVbeopToQ3v6ctrObETpwLxe+X59TinroF3zKO7l+9KwXdkcjH7dHUvCDaHT24gsLs72FNDmrXXxe895s8kom1N6mUdBlnTPvnAOuylDe9qScPPBSxzLEt0nHcerEpY2DloFXp4FAAAQDRAlAAAA0QBRAgAAEA0QJQAAANEAUQIAABANECUAAADRAFECAAAQDRAlAAAA0QBRAgAAEA0QJQCA+cHHFtN0XYLpgCgBAACIBogSAACAaIAoAQAAiAaIEgAAgGiAKAEAAIgGiBIAAIBogCgBAACIBogSAACAaIAoAQAAiAaIEgAAgGiAKAEAAIgGiFIN3Dzp0+hyQNsHzZdF0N06op1+8+UAAAAX9YrSxirt19A5r50OaHS+WpLuOm2cD2h0mbJ/cj0vzyinTxsb1Z93mSj5lb8i+kN6dPw0xy1Md2lzJNIOab3y8lSV/4B2aimfne7WER1u3Z3N9QJgwZlTUcoE6bQrlaNvlGftdECjy97MK31morSyS4fHQ1pP7tLmKKQTr7vTnzb/WYrSbAUQgEWnIlG6RdtKBDKg/eMiMtk+7eXbc4E66JkRi000ROetpE+3i/03RTmy3y8d9NTtWV6GSB70aHTZ58tjOW7+WyXqEum7Sj0oYmwpv7se+rR92rfm1d068os0+sMs3YB2RrvU9b6elo5YibiOaHNlmvZi5r++91TKv+zc0t9vbh2Z5VHKmebT3Tqiw70hHR4/pUd7u1m0NkzTr+ym25njIkoCYLZUHil1j9+i0WWP7iedouPOBCIXGS5i4USJ256JihAQsX3tdED7J91i+O58ldZOmEjJVZ5MZPZPrmvnmW4X6dPhOiniyoRGFzDv43L1JurYEKVjunZGtHJ2Ra/2OrSU/JZefUK0lEid/d4g4DrqonGXNkfTCpErf43+sKS8A9qRzqm7dZT+nUeGUj6j3aK+MgHa6afnY5QjS18cp+rzBgCUUa0ofXBHjUSYzlh04mvidyJi8UxfdNLpMF0qGoWAbJyL6KxHGyd9Gp12lUipiEzSPNnyKPNSfPQk8lpK1P26aOnlD60Hrt6T/StaGR/T0sMLWjm7oOXkmK6dXRVppOjBb7EDH8n4Lpbo5lGMLQIx81fTl4moRUz2BhYxS9Pl0c7KLh2OdqmbiY0+3/bo+KkqSqXiCAComkpF6f7ZgEZnt4pttYtS1uGfr9LNg16eZvuyTxsnvTxCGp2u0sa5Zfgugxcl9TxGl9k8lRahGcxYlJbHRDf2f0tLSSZQZ5SKVLY/75SNSICDj2RCxckr/5VdOtSH4GYlSuxxECUB0ATVidJBj0aXb9H7H0jbnMNuJcNZ0hCWIgLy9qRD8jyOGGbbvuzTxoEWFVmGy9Syl4lAFjVJ+eQLKax1Yc5dGeX3qQdLebznlKT0O/3sd1OKkshvunkWmyiJ/7MVepOIkjZ8J86XFaVkQDvc/FietrmbE4BFpLaFDqO/3nF2rmLZtDyMlqfJhsu2T/t5em57sa+IXDbOmRV/jtWA9vJ0tfNyDOHJYmUZ1uPKbz1uVaJkDE/5LCCwDWfp2yddjcblLy90OKLNrQkjpcQ+bMiLkllHQmzX96aNBgEAkzAHL89qy78Ty3DcQhO6HBwgSgKgOVotSnn0YRlGKyKTAQQKAABaQqtFCQAAwHwBUQIAABANECUAAADRAFECAAAQDRWKUqhxZUj6SdylxfJj7T0UeQkwVlgBAEBUtESUAn+Tv0SpvxwpL49OhQ5mmwAAEA+ViJLq8Kx5l1lcm13p3W7RkwgfbxUDB2gAAIiLeiMlxrWZTa/DeJlVI0pppIS39gEAIB7qFSVGVNj0SZlbdHWitL4X+jkHAAAAdROXKJW6RVcjSut7WOQAAAAxUrEoaQLAuDb7pbe5RU8vSrlzdASVDwAAQKXS95SUoTeHa7Mrvd0tmneXtsOkVz59XZSp6YsAAAAgBS/PAgAAiAaIEgAAgGiAKAEAAIgGiBIAAIBogCgBAACIBogSAA1hWG1pNF0+AJqgHlEyXnpddGSX82le3J3ExLaJ6xVrOcV1kMomvyYgXxeHm7z8KkOpd6IjH5fwTC9KNpf8qtqh47xC65NLDxYWiFIDrO9N6k4ea2ffjnJ2t47o0d5QKpv6cnW6f2B96VtcrzyNzzEd+SwlNYoS65JfVTvk3PaZ+gxOX3G7Aa2iOlHSX0zNG2P2Eqz0ZLm+Zxqhru89zZ6mtEZ6PKw9H/ac2HymqSsfI1jz5d/iJh7SZv6krlkyGS8pa+Igd+qW62V0Clnn1v5ydrSOOjuWJnLpi9tDU/xWdulwtGuWsww2n/T/+ofvZmNInIstV59TpgeLRUWipDX+vLHpVkHpTd3dOkpvhuwm7WZiof5W7gDqzcd5btZ8Jq0jm8msx+/yYY0sD9ktw/JkX7ixc509d73U9GGf9oi5nHIHXPy2+J14et9N20NWrm72e+GVKNrZpuw6wkQh8vkZ+WT/1zt8Z7kvp2qH5XXL1udU6cGiUY0o6U+EiiiZN65ojN2tIR2OhrSehfdiv7AaKp7i6s1H5MXZIZn5TIe/Q7k87NEhtvNmjW8900v/F9Gnfuz2llONrHRRGhiCJV/zR8dPaWcri3CyKC9vB8qnWBzXWs8n29eMKE3SDv3asqs+J00PFo9GREnsX98b0np/SDv99Clb7F/fO6KdvaNyMakqnxLMfCqor5LObCnpFJFgvq3+zn5pZZcOs6hmxzNKir2cyuS+PDymiww3DCiOm0fkevknu0+aHb7zb4f8fWFfzMDVZ2h6sJhUI0rKsIw8dMOIwMouHY6GtLMlbvSj/AmyeKqVb6ia83Fgz2c6vCaYRaerbGc6b9aNXS6zdF3Y6yXqaEibW0O/c21LOa1lU8tpjxz0smnDid6dutl+YoiUJv3yst1tn6/P0PQulsdEK2dE1x5OWz8gRipb6FAMU6RRi1OUsg5GHk/On4z1zuz4aAb5MLD5hNaPuiCgvCO4az7dO+de+OHHrrzYYKtIb79e0m+8lue2pZz6tdCvqb4kWT4v2+dV7MO87vrxFySf/SHtTb0uIe2QweW2b6vP0PQlQJTmG7w8CwxsqxpjpC3ltFGvKAHQXiBKIEdEJRM/QaOcXpQN21U3pwRA+4AoAQAAiAaIEgAAgGiAKAEAAIgGiBIADVH/e0oAtA8YslYK48Ks+L3JS3RD84/T6LQ95Zy1S7jblbve95RsLuGOegjJZ5L2bK1n85WCtq6mBNUBUaoR9uXEiesn1s6+HeWcuUt4SXuoTZRKXMLNepgsH//r4nIPr+aFdDA/tNolnC1LFC7hnAuzz43YFvfttpSzo3WwM3IJL2kPjdgM2ephknwc7VncJ9brKdczRAlYaLVLuLNMjbmEl7gwBz/tx+y+3ZZyNuQSXtIeZm8zZK+H8Hzc7VkXJd4NvMKPDoK5odUu4SIvm21Nvfn4YXp5hX7DJm737baUs0mXcFd7mLUocfUQmk9oe/Z1A6/CtRy0n3a7hJfQuEu43mlpT+BlxO6+3ZZyRuUS3uBH/th6CMwnuD2H1vPU5w3aTLtdwh3E4BKuTmwHRkltcd9uSzmtZZulS/gMFzpYy+6qh0ny4duzMafkVc/yZ9Ld5eEMWWHUOh+03CWcoTGXcIcLc1CU1Bb37baUU79Gs3IJ59tDmehMJ0qcS7ijHkLzcbRnU5S4ep7MtRyiNN/g5Vlg0Bb37baU00a9ogRAe4EogZy2uG+3pZwcZcN21c0pAdA+IEoAAACiAaIEAAAgGiBKAAAAogGiBEBD1P+eEgDtA4asM6EqO5U4jU7bU85Zu4S786n3PSWbS3iFtj7ceYXWJ5c+hN5zulHDUvDlMdHKk+fVtmFQCkSpAVj38FJi7ezbUc6Zu4Q78llKmnMJn74dytZO8kuvLjfwkPSB5YEozRWtdglvzm18mrrycXZoi/t2W8rZ0TrqGbmEs/mk/8/aZii8HfqRiy3rBj5d+oJjunaWviAruLH/20KUxhf59lygHl5I6a/o1V7HEDFFfJT06XaxPxHlyH4//fUBNlrtEt6c2/ikdSQLdsDvonXfbks5G3IJ5/LJ/m/GZmjSdlhet7wb+DTp7ST7V7RydkHLSScXCSEcucjYxOfsghclbvvDi0LQEkRQddNql/Dm3Manw98NOW737baUs0mXcGs+2b5mve+qceWW8/BxAw9Nb0UfrmPERBGupJOLi2/6Qnx+S68+yaKyLFpL/572+gAb7XYJb8xtvIL68jDyjN19uy3ljMolXPt0RXPDd/7tkL8v7IsZuPoMTc+xPCZaGR8X22oXpSwye/KckocXap6gctrtEt6Y2/h0eE0wt8V9uy3ltJZtli7hZvuJIVKa1KrJbobL12doehZtKG0p6ZQMu5UM00lDf0re8vakQ/J8FqKkemm5S3hTbuOh9RPqhtwW9+22lFO/FrNyCefzqdeQlXP3nsyV20BffHIsLVCw1WdoehZzoYNzLigRc08ivRYFZYsfro2v8vTc9mKfJoigcvDyLDBoi/t2W8ppo15RAtWTzispw4agFiBKIKct7tttKSdH2bBddXNKoAry6AmCNBMgSgAAAKIBogQAACAaIEoAAACiAaJUAzdP+jS6HND2QfNlEZjvEgEAQHzUK0obq7RfQ+e8djqg0flqSbrrtHE+oNFlyv7J9bw8o5w+bWxUf95louRX/opQvObKVqvJS5hrMFQFAIAS5lSUMkE67Url6BvlWTsd0OiyN/NKn5ko5S+fhlgGdag2l28AACihIlG6RdtKBDKg/eMiMtk+7eXbc4E66JkRi000ROetpE+3i/03RTmy3y8d9NTtWV6GSB70aHTZ58tjOW7+WyXqEum7Sj0oYmwpv7se+rR92rfmJdzKS0Ujf/lXNkv1wSJKSsRVjbMFAADoVB4pdY/fotFlj+4nnaLjzgQiFxkuYuFEidueiYoQELF97XRA+yfdYvjufJXWTphIyVWeTGT2T65r55luF+nT4Top4sqERhcw7+Ny9Sbq2BAl8aa7eNs8fdFvKZEcEUKdyZX8J/MMBACAUKoVpQ/uqJEI0xmLTnxN/E5ELJ7pi046HaZLRaMQkI1zEZ31aOOkT6PTrhIpFZFJmidbHmVeio+eRF5LibpfFy29/KH1wNV7sn+VvtiXm0Ue07WzqyKNFOX4LXYwI6WqndIBAMBGpaJ0/2xAo7NbxbbaRSnr8M9X6eZBL0+zfdmnjZNeHiGNTldp49wyfJfBi5J6HqPLbJ5Ki9AMZixKy+PCJDL3+pLePlc+quZlIMrPKUGcAAB1Up0oHfRodPkWvf+BtM057FYynCUNYSkiIG9POiTP44hhtu3LPm0caFGRZbhMLXuZCGRRk5RPvpDCWhfm3JVRfp96sJTHe05JSi8+qjatKIn82mrxAwCIm9oWOoz+esfZuYpl0/IwWp4mGy7bPu3n6bntxb4ictk4Z1b8OVYD2svT1c7LMYQni5VlWI8rv/W4VYmSthy8/Dd+7tJYLg4AqIs5eHlWW/6dWIbjFprQ5eAAANAcrRalPPqwDKMVkckAAgUAAC2h1aIEAABgvoAoAQAAiAaIEgAAgGiAKAEAwBSIdwOvPVyM4xb2ZfXk34wo9Z7TjeDKTK10xEuik1NVPk3VA39OKxkzb6Se5C/2Cp48pySCcjXeTvrDQBuoWZUHxrwK2f26kll6ie2TisPyOL0HqjvujPqBIFEKaUNpWohSk1QmShkPL1ogShe0nHRI+PN53ZSNAFGCKKkIEanqQcpXlIKPG1U/0JgoqQotjEFffaLf1JlRqNIZi99euC/KGRlP2UtJx3iKSA1JiwsjPzU48wkm61RFPuPj1O7nibD5uZDOy14/znrgziu0MVrzYcojOuLxRfGb8XGWxxVdG1/RNE9hqiiJ8l5Zrpd8vmY962Iublq+/pl6YM7L2U4s7Wqi9rOyS4fyC8k2EcjEobt1RId7wzT93m72zathmn60S5t7vu7tmbHuVvFSde7M4SjP5tYR3OFFO5Tsu9jIxHW/aO2nvP8JOG5wPxAK9701ezvMzaCNdqXvE3nVGCmJTsJHlNIOQOqoWGxPruk2Ufmi03M/5VbxBFw85ctPL/kTTdbZvtrTjFG1dHw9cOdVUi6jMfrlUzyxFcK4nOd3VTTo7Hy9hx00WFGyiczZBVvPLlGy1z9TD87z4tvb9NHTgHbkDp6LTCRRenQ8pPVMOHb6qbgIp41cWEq9DbNOJY/K0uO5yxOS/3xiDDtr3pLGfce1K6bdVnZcdvuE/Ymz/WqixLYTj0hJa2+ViZJtvmB5THb36olU29Ih6E8dZ1pnZs2/go6FGXazny+x9eMb5RXnVVIuvTE68rGWh6ubwJvJ3UZMUfIVq7LysPXP1YPzvGx14WpXAejDdR6idLh1N41mRrvUTWRR0juHoePYzCdIfMtTmv88Y4tY1PtMFyW9Xent3O8+Cjgut33S/oTF3i7s7cQuSt08+jYj82pESasE5SKMj2l5nIay1x4e0zW5Mxinv/MTCE6UHJ2D3OnnF7UBUWLqh62HsvPyvA5sPlx5ZixK4v/ZiJKlHoJFydWuAqhLlLIvDfPHnlKUsuNX0me0jraL0hQPUQYloqS0Q4sorezSoWOkoEJRUudJVp48T7c/uaIbYkgl+9sctvKpMEsnIY7l7Bj0CfWah+/KOv1PFbsAAB35SURBVEW5frh68Dov7jpYhhH0fLjyzFSUsqHCvL5s+XsM30nlZ+ufq4dJRcnargLIP1Mvblr5SVHcrMV2X1Hqbh0p4pI+jcoixIiSszx8/ovF9KLE33cVHbekPBM9QFlxi5LaTrShYaO9yUPKlc4pycMaF/Tq/pU6PDU+prwTMsZWxW/NuRcdZciJmXhW50bsQy3WfILRjpEtdLAP37nrx1oPIROiyjCgFp5b82HKMxNRUuvMvk+eYzTrOS9Ddm2vja/cosTVQ8l5me3E3a5CKCZ6h7QuRSpdeVHBlk+kpDq6d6VjeIsSWx53/ouFRRy4+87Rrmztturj+vcDoXXg+RUBazvkFjoU7bzyOSUAwKzBkm0QA9W2w6hE6Zqh8ilNlysWUD9ABaI0D7T/vp5jUQIAALDYQJQAAABEA0QJAABANECUAAAATE1VruXViFJVxqJVG5TWXPny8sqJTBqd5xuRcWxs9cZSj0vypEvg44PzLquJiY1mXRPnDSzuaEm/VD/u+8sQpQnrDaI0AZW5XS+kKM3AJbxil+T5ESXBjDp2iNJ84nt/RSFK4wtTRTn3Z9v2QPfwpnC6XQe4lnPn6+9S7Xa7brqegurNcl5uQ1/H+dpuGms7dLwMy71sWItLeNbJ9ofKy67CiHUpsbsqT+4ezlm/WKKo/lA6rodLuNVtPDR/uXxZdDfadbpOq/lI7hRBLuoMgf1bsFt9BPdmEIzhq1E3rnqz1IN4+KtUlMRwjO7CbLg/e2z3dw+fPXznGuha7jxf3laJqzej/iOoK696Y86rzGWedS33sX1xuaWzb+RX6RKudczCU87nW0ZTu4eXeJfl6XkHCP68PN3PnfkX6df3nmrRFieotvwrcjkPcf0WD5UhbvUR3JtBhNobGf0SUw9ZfdUzfFfi/lzWOcX+FMGWP9S13Hm+ZgfobVwqRyAREdoeylzmWdsj7eZwRWjWeS7WOLNCl3CrXUu6X0QEO/3iNzZX5cndwy0iwZTHVhbnedmMXYPzl2xrjOE/iygZw4TyJzkqcDn3NFh1t1uHW30E92YQgaJk9Esl/WSUohTmHj57OLfrYNdy5/nOvyiVuYSXusxPK0oud3uXm3PVLuEa63tHtLN3VHTUjKvy5O7hdjdyV5m9xMklSkH5Sx8XNPz2phClUhd1931bjSjF+7DtTSWiZK+HZL+WSEmawObcn8s+5RDkHj57WLfrUNdy5/ny349y1VvMnxkPdgn3cJlX0nM3h7MdMu72pW7O09SzxTk5o3BYltIwrsqTuofbI4jyYbr8eHK+8u+83M998i/K1zWEqcx1uvhNZS7nTtfvgE+oVO7W3RATiZLZ79nr4bjiOSUpFFOfhj23T+gePmtcbtdBruUl52tzM3fVm62eYyLYJdzLZd4UZ9vwiL0dcm7pnJtzdS7h+pDW4dbdbJs+rHZES4ndVTncPZxzeWbKY6RXIxTThZx3Pw/LXxWTNM+hdlx1eE8d3tSEcVqXc8dDkK1dBbvVR3BvhtSDcX95b9ejSns94OXZeQBLVoECjFpRD+0FojQPQJSAAjpj1EN7gSgBAACIBogSAACAaIAoAQAAiAaIUg3cPOnT6HJA2wfNl0XQ3TryewESAAAapF5R2lil/Ro657XTAY3OV0vSXaeN8wGNLlP2T67n5Rnl9Gljo/rzLhMlv/JXhLYUtxJhKn0ZcrYTzPr7MwCA9jKnopQJ0mlXKkffKM/a6YBGl72ZV/rMRCl/qfAubY4qFImoRAkrrACYJyoSpVu0rUQgA9o/LiKT7dNevj0XqIOeGbHYREN03kr6dLvYf1OUI/v90kFP3Z7lZYjkQY9Gl32+PJbj5r9Voi6RvqvUgyLGlvK766FP26d9a165EWfZdclfxkzdkrte11L+5o5kZsm5P1uRbGJ0d2aLmzPvdq0f1zxnREkAzBeVR0rd47dodNmj+0mn6LgzgchFhotYOFHitmeiIgREbF87HdD+SbcYvjtfpbUTJlJylScTmf2T69p5pttF+nS4Toq4MqHRBcz7uFy9iTo2REk4DQiHgcxNO5HesPe0V1nfe2rp5Dn3Zy4f2WJGsndh3JzdbteMm3bSoXAXawBA7FQrSh/cUSMRpjMWnfia+J2IWDzTF510OkyXikYhIBvnIjrr0cZJn0anXSVSKiKTNE+2PMq8FB89ibyWEnW/Llp6+UPrgat3YVxquGmLNFJ04p5TYobCOKNN33xYY840HWuXU+KmPflH5AAAsVKpKN0/G9Do7FaxrXZRyjr881W6edDL02xf9mnjpJdHSKPTVdo4twzfZfCipJ7H6DKbp9IiNIMZi9LyuDBuzb24JF+5vNMv/Z5MhKLEHgdREgDzSHWidNCj0eVb9P4H0jbnsFvJcJY0hKWIgLw96ZA8jyOG2bYv+7RxoEVFluEytexlIpBFTVI++UIKa12Yc1dG+X3qwVIe7zklKf1OX3ZP5tKm80nG8B3r/szlw4gS4+bsNhZlhCdP2/xNBACojtoWOoz+esfZuYpl0/IwWp4mGy7bPu3n6bntxb4ictk4Z1b8OVYD2svT1c7LMYQni5VlWI8rv/W4VYmSMfzlI2Sqs7IQKNb9mc3D/r0em5szL0rmOcjlwXtXAMwfc/DyrLb8O7EMxy00FS8HjwFESQDMLa0WpTz6sAyjFZHJAAIFAAAtodWiBAAAYL6AKAEAAIgGiBIAAIBogCjVQIwu4U0Bd3IAQAhzasjaIbiEmyyPiVaePJ/N59OD3Mllv705WykIAAhiTkUJLuEGshDVLUoTu5PD8RuARQcu4fPsEi4hoqQk6RSiNL5ILYlkgXpYbBMGr8tjohtPhH3RRWb+epGmz/KS00/mTt4hqygpERdshQCYd+ASPucu4fL+XHiEkGQixQ3rLY9T8ckF7eFFdgxh+Krmm/rupWIV6k6eoosS/O0AWDTgEp7Mv0t4sn9VRElJxy4+T57norIs0mUitDwmS/6kRVWCi6Js3u7kAjNSEuKGxRIALAZwCU/m3SU8FRCxfynpVCxKIjoz8XcnF/BzShAnABYDuITnZZ9Pl3BDaJIOK0oi8tG3s6IkhgGlz2TI+LuTC9wLHfCVWQDmH7iEZ8ylS3g2t6RESUmHF6VEirSyobhlsd8mSknHHMJ78nwCd3LVmbz4mJ++HSvzAJh35uDlWbiEs+Qi0sTx59CdHABQO60WJbiEAwDAfNFqUQIAADBfQJQAAABEA0QJAABANECUAAAAREO9olST8ae8hBkAAMD8AFECAAAQDRWJkjAELbix/9tgN2rXS522lzQV5+uk+H3TlQoAAGAyKo+UFFubQDdqVpSctjiF9xoiKAAAaDfVipI+XBdo/OmbvhAf2UbHYjwKAACgVVQqSrlHmthWuyhJn2Vo1FIHAABAFVQnSrbPGAS6Uds+2W0M08nbkw7J81mIkgAAoN3UttDBOReU2N2o8zTZ4odr46s8Pbe92Md/1wcAAEA7mIOXZ9N5Je6bPgAAANpDq0Upj54gSAAAMBe0WpQAAADMFxAlAAAA0QBRAgAAEA0QpRpIP8c+oO2D5svSNN2tI9rpN18OAEA7qFeUNlZpv4bOee10QKPz1ZJ012njvPgk+v7J9bw8xWfS+7SxUf15l4mSX/mrh7NtqoX+kB4dP82pRJj6Q3q0N5jgtwPaOR7Seh3nGFCe7tYRHW7dnfl1B6BNzKkoZYJ02pXK0TfKs3Y6oNFlb+aV3ogoWV5Mrk2UVnbp8HhI68ld2hxVKAatFqWaygDAnFGRKN2ibSUCGdD+cRGZbJ/28u25QB30zIjFJhqi81bSp9vF/puiHNnvlw566vYsL0MkD3o0uuzz5bEcN/+tEnWJ9F2lHhQxtpTfXQ992j7tW/Pqbh3Ro8AOTnFUD3RvXx4T3XiSvew8vshelL5I0wuHDdntvT/MyjegndEudb3KeJc2R0VklUcUK7t0KEVcbhEY0I6cNs8nFYTNraNs+xFtrmS/USI6UaeagMjiYylPd+tILVcmynLZECUB4EflkVL3+C0aXfboftIpOu5MIHKR4SIWTpS47ZmoCAER29dOB7R/0i2G785Xae2EiZRc5clEZv/kunae6XaRPh2ukyKuTGh0AfM+Lldvoo4NURKOGsLVIn2heEnbrxvl+rq354KW2z0d07WzKyNf4VG4lHRofc9HRArW955aOu0B7egCEhKZ5IKYiVX221xE8ohOyn+0S7woceVR05sCdJc2R9LvAAAs1YrSB3fUSITpjEUnviZ+JyIWz/RFJ50O06WiUQjIxrmIznq0cdKn0WlXiZSKyCTNky2PMi/FR08ir6VE3a+Lll7+0Hrg6j3Zv0pfIM5NaYVoSPst353yNcrNjXaV/Mn8xpUcQSUdJQpxzykxQ1u6CHmLkj5syIiMkV+azju99P/6njhHy5DlxMOOACwelYrS/bMBjc5uFdtqF6Wswz9fpZsHvTzN9mWfNk56eYQ0Ol2ljXPL8F0GL0rqeYwus3kqLUIzmLEoLY8LM9rcUzB3ubB80qNSUeI9B/OIIY9AuLZTrSiZK/7qF6WllV06zKKvHURJAExMdaJ00KPR5Vv0/gfSNuewW8lwljSEpYiAvD3pkDyPI4bZti/7tHGgRUWW4TK17GUikEVNUj75QgprXZhzV0b5ferBUp6QOSVDaJJOsHs7K0piGJCxeRLi0N06KhGldD7JGL5ThtfUITgWIQ7KdkZktOG7opzyMJ10XGd50ghpc2uoCtDKLh16z6sBAGpb6DD66x1n5yqWTcvDaHmabLhs+7Sfp+e2F/uKyGXjnFnx51gNaC9PVzsvxxCeLFaWYT2u/NbjViZK8kcQpe2B7u2sKCUd62fq9eXgfmVVFykIgcrnpo6HtF4aKamLJR4dPy2ZIxJ1aZazKy+K2FKH6bjyCFHrSmUqhvUAAD7Mwcuz2vLvxDIct6g0+uHDipeDtwBDgBAlARBMq0Upjz4sw2hFZDKAQIFaEdETlnwDMD2tFiUAAADzBUQJAABANECUAAAARANEqQbgEt4+4GYOQBzMqSFrh+ASbjJTl3Dbcbk0NZWn9LhJJ9DNXF5yvlgrCwGYFXMqSnAJN5ilSzh33GnSTECpKE3sZg7HbwDqAi7hcAmv3iWcO25uHFtwY/+3weVxvfxre5lXLUPx+8nczDtkFSUl4oKtEACTApdwuITX4hJuPa6EYn8UWB5WlJz2SYVgyiIW6maeoosS/O0AqAq4hCdwCa/LJdw4LnP80PL4pi/ER7ZbshjUeruZC8xISYgbFksAMB1wCU/gEl6PS7jluFJ5FRPX2kVJEkiL9ZK/m7mAn1OCOAEwHXAJz8sOl/AqXcKtx006diELLI9t0YYxTCdvTzokz2fpQunvZi5wL3TAV2YBmBy4hGfAJbxCl3DuuJaFDs65IKY8eZpsHu3a+CpPz20v9kmCGOxmbn5uvXAhD3VFBwDYmIOXZ+ESztKUS3ij7uQcqVCaUd3iuZkDEDOtFiW4hAMf8uiJ+RghACAeWi1KAAAA5guIEgAAgGiAKAEAAIgGiFINwCW8fcAlHIA4mFND1g7BJdwELuEWglzCPekPA22LAACCORUluIQbwCXcZGKX8BIgSgBMDFzC4RIOl/Agl3D5m0pPC+eGlV06lF+ghSgBMBFwCYdLOFzCA0Rkfe+pxUJoQDvy5yoQKQEwMXAJT+ASDpdwX5dwxvNOFyGIEgATA5fwBC7hcAn3dQmHKAFQN3AJz8sOl3C4hJe5hKfzScbwXb5gokO5OStECYCJgEt4BlzC4RLuV6eqI7gQqHxu6nhI64iUAJiYOXh5Fi7hLHAJl4BLOABtoNWiBJdw4ANcwgFoD60WJQAAAPMFRAkAAEA0QJQAAABEA0SpBmJ0CYcLNgCgDcypIWuH4BKeEeSCLfu6YUUaAGD2zKkowSV8KelM4YLNOBcAAEDNwCV8nl3CJ3LB7pBVlJSISzIfBQCACoFL+Jy7hIe6YKfoonSXNkcQIgBA/cAlPJl/l3B/F2yBGSkJccNiCQBAncAlPJl3l/AQF2wBP6cEcQIA1AlcwvOyz6dLuEjv54ItcC90yEUuggYMAJgv4BKeMZcu4cEu2KoD9qPjp5mI6duxMg8AUA9z8PIsXMLdwAUbANAeWi1KcAkHAID5otWiBAAAYL6AKAEAAIgGiBIAAIBogCgBAMAUiHcDrz1cjOMW9mX15N+MKPWe043gykytdMRLopNTVT5N1QN/TisZM2+knuQv9gqePKckgnI13k76w0AbqFmVB8a8Ctn9upJZeontk4rD8ji9B6o77oz6gSBRCmlDaVqIUpNUJkoZDy9aIEoXtJx0SPjzed2UjQBRgiipCBGp6kHKV5SCjxtVP9CYKKkKLYxBX32i39SZUajSGYvfXrgvyhkZT9lLScd4ikgNSYsLIz81OPMJJutURT7j49Tu54mw+bmQzsteP8564M4rtDFa82HKIzri8UXxm/FxlscVXRtf0TRPYaooifJeWa6XfL5mPetiLm5avv6ZemDOy9lOLO1qovazskuH8gvJNhHIxKG7dUSHe8M0/d5u9s2rYZp+tEube77u7Zmx7lbxUnXuzOEoz+bWEdzhRTuU7LvYyMR1v2jtp7z/CThucD8QCve9NXs7zM2gjXal7xN51RgpiU7CR5TSDkDqqFhsT67pNlH5otNzP+VW8QRcPOXLTy/5E03W2b7a04xRtXR8PXDnVVIuozH65VM8sRXCuJznd1U06Ox8vYcdNFhRsonM2QVbzy5Rstc/Uw/O8+Lb2/TR04B25A6ei0wkUXp0PKT1TDh2+qm4CKeNXFhKvQ2zTiWPytLjucsTkv98Ygw7a96Sxn3HtSum3VZ2XHb7hP2Js/1qosS2E49ISWtvlYmSbb5geUx29+qJVNvSIehPHWdaZ2bNv4KOhRl2s58vsfXjG+UV51VSLr0xOvKxloerm8Cbyd1GTFHyFauy8rD1z9WD87xsdeFqVwHow3UeonS4dTeNZka71E1kUdI7h6Hj2MwnSHzLU5r/PGOLWNT7TBclvV3p7dzvPgo4Lrd90v6Exd4u7O3ELkrdPPo2I/NqREmrBOUijI9peZyGstceHtM1uTMYp7/zEwhOlBydg9zp5xe1AVFi6oeth7Lz8rwObD5ceWYsSuL/2YiSpR6CRcnVrgKoS5SyLw3zx55SlLLjV9JntI62i9IUD1EGJaKktEOLKK3s0qFjpKBCUVLnSVaePE+3P7miG2JIJfvbHLbyqTBLJyGO5ewY9An1mofvyjpFuX64evA6L+46WIYR9Hy48sxUlLKhwry+bPl7DN9J5Wfrn6uHSUXJ2q4CyD9TL25a+UlR3KzFdl9R6m4dKeKSPo3KIsSIkrM8fP6LxfSixN93FR23pDwTPUBZcYuS2k60oWGjvclDypXOKcnDGhf06v6VOjw1Pqa8EzLGVsVvzbkXHWXIiZl4VudG7EMt1nyC0Y6RLXSwD9+568daDyETosowoBaeW/NhyjMTUVLrzL5PnmM06zkvQ3Ztr42v3KLE1UPJeZntxN2uQigmeoe0LkUqXXlRwZZPpKQ6unelY3iLElsed/6LhUUcuPvO0a5s7bbq4/r3A6F14PkVAWs75BY6FO288jklAMCswZJtEAPVtsOoROmaofIpTZcrFlA/QAWiNA+0/76eY1ECAACw2ECUAAAARANECQAAQDRAlAAAAExNVa7l1YhSVcaiVRuU1lz58vLKiUwanecbkXFsbPXGUo9L8qRL4OOD8y6riYmNZl0T5w0s7mhJv1Q/7vvLEKUJ6w2iNAGVuV0vpCjNwCW8Ypfk+RElwYw6dojSfOJ7f0UhSuMLU0U592fb9kD38KZwul0HuJZz5+vvUu12u266noLqzXJebkNfx/nabhprO3S8DMu9bFiLS3jWyfaHysuuwoh1KbG7Kk/uHs5Zv1iiqP5QOq6HS7jVbTw0f7l8WXQ32nW6Tqv5SO4UQS7qDIH9W7BbfQT3ZhCM4atRN656s9SDePirVJTEcIzuwmy4P3ts93cPnz185xroWu48X95Wias3o/4jqCuvemPOq8xlnnUt97F9cbmls2/kV+kSrnXMwlPO51tGU7uHl3iX5el5Bwj+vDzdz535F+nX955q0RYnqLb8K3I5D3H9Fg+VIW71EdybQYTaGxn9ElMPWX3VM3xX4v5c1jnF/hTBlj/Utdx5vmYH6G1cKkcgERHaHspc5lnbI+3mcEVo1nku1jizQpdwq11Lul9EBDv94jc2V+XJ3cMtIsGUx1YW53nZjF2D85dsa4zhP4soGcOE8ic5KnA59zRYdbdbh1t9BPdmEIGiZPRLJf1klKIU5h4+ezi362DXcuf5zr8olbmEl7rMTytKLnd7l5tz1S7hGut7R7Szd1R01Iyr8uTu4XY3cleZvcTJJUpB+UsfFzT89qYQpVIXdfd9W40oxfuw7U0lomSvh2S/lkhJmsDm3J/LPuUQ5B4+e1i361DXcuf58t+PctVbzJ8ZD3YJ93CZV9JzN4ezHTLu9qVuztPUs8U5OaNwWJbSMK7Kk7qH2yOI8mG6/HhyvvLvvNzPffIvytc1hKnMdbr4TWUu507X74BPqFTu1t0QE4mS2e/Z6+G44jklKRRTn4Y9t0/oHj5rXG7XQa7lJedrczN31ZutnmMi2CXcy2XeFGfb8Ii9HXJu6Zybc3Uu4fqQ1uHW3WybPqx2REuJ3VU53D2cc3lmymOkVyMU04Wcdz8Py18VkzTPoXZcdXhPHd7UhHFal3PHQ5CtXQW71Udwb4bUg3F/eW/Xo0p7PeDl2XkAS1aBAoxaUQ/tBaI0D0CUgAI6Y9RDe4EoAQAAiAaIEgAAgGiAKAEAAIgGiFIN3Dzp0+hyQNsHzZdF0N068nsBEgAAGqReUdpYpf0aOue10wGNzldL0l2njfMBjS5T9k+u5+UZ5fRpY6P68y4TJb/yV4S2FLcSYZrYaHNWyEuBj0rSzW4iXH/PBwBgMqeilAnSaVcqR98oz9rpgEaXvZlX+sxEKX+p8C5tjirsfCMXJf/Of5aihJVgAPhQkSjdom0lAhnQ/nERmWyf9vLtuUAd9MyIxSYaovNW0qfbxf6bohzZ75cOeur2LC9DJA96NLrs8+WxHDf/rRJ1ifRdpR4UMbaU310Pfdo+7Vvzyo04y65L/jJm6pbc9bqW8jd3JDNLzv2ZzSN7yVPKh3e1Dm1v9vzF/vU934hQsrPRXaQtrtPO8nMu2NI1Q5QEQDmVR0rd47dodNmj+0mn6LgzgchFhotYOFHitmeiIgREbF87HdD+SbcYvjtfpbUTJlJylScTmf2T69p5pttF+nS4Toq4MqHRBcz7uFy9iTo2REk4DQiHgcxNO5HesPeMbNb3nlo6T879mcunsMIpfj90uFqHtjNX/synDazIVjiSDQ3jOu125WZcv/PyTvjZBAAWjGpF6YM7aiTCdMaiE18TvxMRi2f6opNOh+lS0SgEZONcRGc92jjp0+i0q0RKRWSS5smWR5mX4qMnkddSou7XRUsvf2g9cPUujEsNN22RRnrqd0cQzBATZ7TJ5mPvhHlbHL5MdvsYdycfGikZxqSMwSdb/hLX79iHOwGIiUpF6f7ZgEZnt4pttYtS1uGfr9LNg16eZvuyTxsnvTxCGp2u0sa5Zfgugxcl9TxGl9k8lRahGcxYlJbHhXFr7sUl+crlnWnp92TiE6WQ/AWNiBJbH4iSAAihOlE66NHo8i16/wNpm3PYrWQ4SxrCUkRA3p50SJ7HEcNs25d92jjQoiLLcJla9jIRyKImKZ98IYW1Lsy5K6P8PvVgKY/3nJKUfqcvuydzadNhMWP4jnV/duXTYlFiXKfdBqhMefK09dzAAMwbtS10GP31jrNzFcum5WG0PE02XLZ92s/Tc9uLfUXksnHOrPhzrAa0l6ernZdjCE8WK8uwHld+63GrEiVjWMlHyFRnZSFQrPuzlZaLUmIfNnSW3+qCHVIWAMBSMhcvz2rLvxPLcNxCU/FycOAPoiQAgmm1KOXRh2UYrYhMBhAoAABoCa0WJQAAAPMFRAkAAEA0QJQAAABEA0QJAABANFQkSlWZTc7YtHKqN+1hsNksqH8A5hGIEkSppaD+AZhHKhUlm9ty8dKl9vKm8rKhSO9wbU5CnQzC3a5981fPScvH4i7t3G7B5UZtr8/UBXxzT63P3GBU5J05Ffifm+Y1Z3PlNl7QZQxK9wYTuGzbz8u//mHvA0Db+P8UZjtOJpwdaAAAAABJRU5ErkJggg==;" vertex="1" parent="1">
          <mxGeometry x="275" y="462" width="421" height="347" as="geometry" />
        </mxCell>
      </root>
    </mxGraphModel>
  </diagram>
</mxfile>
